<?xml version="1.0" encoding="UTF-8"?>
<svg version="1.1" xmlns="http://www.w3.org/2000/svg" width="200" height="100">
<path d="M0 0 C66 0 132 0 200 0 C200 33 200 66 200 100 C134 100 68 100 0 100 C0 67 0 34 0 0 Z " fill="#EEE3DA" transform="translate(0,0)"/>
<path d="M0 0 C3.25484919 1.52661068 5.54589445 3.40041912 8 6 C8.56203125 6.56074219 9.1240625 7.12148438 9.703125 7.69921875 C10.13109375 8.12847656 10.5590625 8.55773438 11 9 C13.95803481 7.6512925 16.20796367 6.10431451 18.625 3.9375 C23.71863452 -0.61118235 28.37719199 -0.64798372 35.09765625 -0.46875 C41.17056917 0.26072903 44.61503659 2.91664783 49 7 C49.74121094 7.66 50.48242188 8.32 51.24609375 9 C56.19203615 13.64646332 59.51951823 18.20626547 62 24.5625 C63.2782767 27.67829946 65.09470949 30.22866835 67 33 C67.495 33.86625 67.99 34.7325 68.5 35.625 C69.94427924 38.10488613 69.94427924 38.10488613 72.1875 40.1875 C72.785625 40.785625 73.38375 41.38375 74 42 C74 42.66 74 43.32 74 44 C77.63 44.66 81.26 45.32 85 46 C85 45.34 85 44.68 85 44 C86.33333333 42.66666667 87.66666667 41.33333333 89 40 C90.76290009 34.71129972 91.01446377 29.02892754 88.5 24 C88.005 23.34 87.51 22.68 87 22 C87 21.34 87 20.68 87 20 C85.68 20 84.36 20 83 20 C83 19.34 83 18.68 83 18 C87.23347302 17.38422211 89.69261904 17.23070509 93.4296875 19.4296875 C99.23739146 24.17105893 102.04638585 28.56591116 103 36 C103.89172503 47.1271776 103.24294744 58.24888969 95.86328125 67.1484375 C87.7096514 75.25078666 80.41787462 78.01781598 69.1875 78.25 C59.14905043 78.07840257 50.9992757 76.37941852 42 72 C40.845 71.54625 39.69 71.0925 38.5 70.625 C33.98569823 68.52907418 30.05615431 65.86542719 26 63 C25.13375 62.4225 24.2675 61.845 23.375 61.25 C19.61349312 57.68646717 16.5958092 53.48095017 14 49 C14 48.01 14 47.02 14 46 C12.68 46 11.36 46 10 46 C9.773125 47.051875 9.54625 48.10375 9.3125 49.1875 C8.13415054 53.24264746 6.21360983 55.20555667 3 58 C2.39800781 58.556875 1.79601562 59.11375 1.17578125 59.6875 C-13.2603179 72.84732319 -30.99053679 78.61261897 -50.40234375 78.31640625 C-56.90988303 77.74408195 -61.83210588 75.83066614 -66.8125 71.625 C-67.534375 70.75875 -68.25625 69.8925 -69 69 C-69.845625 68.0925 -70.69125 67.185 -71.5625 66.25 C-78.92756516 57.30504704 -79.44240857 47.07155804 -79 36 C-78.18672769 28.58789789 -76.03022298 24.49151668 -70.1875 19.6875 C-66.49976492 17.73516966 -64.11357578 17.67091394 -60 18 C-60 20 -60 20 -62.375 22.5 C-63.24125 23.325 -64.1075 24.15 -65 25 C-67.17398016 26.76914973 -67.17398016 26.76914973 -67.265625 28.98828125 C-67.22581459 34.91007999 -66.97460658 38.85614143 -62.8125 43.375 C-60.05361213 45.26156223 -60.05361213 45.26156223 -56.625 45.125 C-47.97292516 42.43987332 -44.58512747 36.13495373 -40.48046875 28.4140625 C-39.74763672 27.21910156 -39.74763672 27.21910156 -39 26 C-38.34 26 -37.68 26 -37 26 C-36.82984375 25.41992188 -36.6596875 24.83984375 -36.484375 24.2421875 C-33.29709285 13.96828867 -27.42689961 6.87034286 -18.171875 1.296875 C-12.29132957 -1.10748594 -6.22528991 -0.83981427 0 0 Z " fill="#323740" transform="translate(89,17)"/>
<path d="M0 0 C0 2 0 2 -2.375 4.5 C-3.674375 5.7375 -3.674375 5.7375 -5 7 C-7.17398016 8.76914973 -7.17398016 8.76914973 -7.265625 10.98828125 C-7.22133129 17.57697128 -6.24142743 21.79461179 -2 27 C-3.65 26.67 -5.3 26.34 -7 26 C-9.09570426 20.30601106 -10.45018084 15.04801071 -11 9 C-13.16874252 9.50603992 -14.99967627 9.99983813 -17 11 C-13.80745244 3.1637469 -8.15887736 -0.30788216 0 0 Z " fill="#333840" transform="translate(29,35)"/>
<path d="M0 0 C1.32 0 2.64 0 4 0 C4.66 3.3 5.32 6.6 6 10 C5.34 10 4.68 10 4 10 C4 9.01 4 8.02 4 7 C3.38125 7.495 2.7625 7.99 2.125 8.5 C0 10 0 10 -2 10 C-2.20625 10.556875 -2.4125 11.11375 -2.625 11.6875 C-4.57683032 14.97012371 -6.94230994 16.70673246 -10 19 C-10.66 19 -11.32 19 -12 19 C-10.51082643 14.08572721 -7.55813338 10.59680874 -4 7 C-3.34 6.67 -2.68 6.34 -2 6 C-1.27306096 4.02111039 -0.60183749 2.02045442 0 0 Z " fill="#D4CCC6" transform="translate(99,63)"/>
<path d="M0 0 C7.19825708 -0.48801743 7.19825708 -0.48801743 10.875 1.75 C12.8411253 3.83177973 14.12426226 5.28521301 15 8 C14.67 8.99 14.34 9.98 14 11 C13.67 10.01 13.34 9.02 13 8 C12.34 8 11.68 8 11 8 C10.96261719 8.65226562 10.92523438 9.30453125 10.88671875 9.9765625 C10.48506238 15.31622957 9.83238391 19.3204092 7 24 C6.67 23.34 6.34 22.68 6 22 C6.33 21.01 6.66 20.02 7 19 C7.51079148 13.20448134 7.61010489 8.81347318 4 4 C4 3.34 4 2.68 4 2 C2.68 2 1.36 2 0 2 C0 1.34 0 0.68 0 0 Z " fill="#54565B" transform="translate(172,35)"/>
<path d="M0 0 C1.32 0 2.64 0 4 0 C4 0.66 4 1.32 4 2 C4.66 2 5.32 2 6 2 C6 2.66 6 3.32 6 4 C6.556875 4.226875 7.11375 4.45375 7.6875 4.6875 C10.63246684 6.35896766 12.68156544 8.55276352 15 11 C14.01 11.495 14.01 11.495 13 12 C11.20101037 10.76056233 9.41103677 9.50803104 7.625 8.25 C6.62726563 7.55390625 5.62953125 6.8578125 4.6015625 6.140625 C2.16136674 4.13277624 1.08781156 2.90956826 0 0 Z " fill="#494A50" transform="translate(109,73)"/>
<path d="M0 0 C-1.93857363 1.47607129 -3.883552 2.941976 -5.83984375 4.39453125 C-7.13449189 5.3567381 -8.42130079 6.32984057 -9.69140625 7.32421875 C-12.31015805 9.27289829 -13.56357764 10.03794977 -16.875 9.75 C-17.57625 9.5025 -18.2775 9.255 -19 9 C-19 8.01 -19 7.02 -19 6 C-17.68 6.66 -16.36 7.32 -15 8 C-14.54109375 7.51789062 -14.0821875 7.03578125 -13.609375 6.5390625 C-12.99578125 5.90742188 -12.3821875 5.27578125 -11.75 4.625 C-11.14671875 3.99851562 -10.5434375 3.37203125 -9.921875 2.7265625 C-6.5458221 -0.30639559 -4.4192423 -1.57830082 0 0 Z " fill="#515357" transform="translate(117,18)"/>
<path d="M0 0 C0.66 0 1.32 0 2 0 C0.88798069 2.72950195 -0.23308554 4.22695171 -2.375 6.3125 C-5.36095342 9.36954755 -7.00936151 12.23990508 -9 16 C-9.66 16 -10.32 16 -11 16 C-10.67 14.35 -10.34 12.7 -10 11 C-9.34 11 -8.68 11 -8 11 C-7.9071875 10.1646875 -7.9071875 10.1646875 -7.8125 9.3125 C-6.66125177 6.03587043 -4.51840336 4.33412994 -2 2 C-1.34 1.34 -0.68 0.68 0 0 Z " fill="#F6ECE2" transform="translate(63,21)"/>
<path d="M0 0 C1.64908544 2.47362816 2.65514453 4.47437131 3.75 7.1875 C5.84003389 12.01674498 8.68280878 15.94196941 12 20 C9.69 19.34 7.38 18.68 5 18 C5 17.34 5 16.68 5 16 C4.34 15.67 3.68 15.34 3 15 C3 14.34 3 13.68 3 13 C2.26827017 10.74383304 1.46199236 8.51977515 0.65625 6.2890625 C0 4 0 4 0 0 Z " fill="#BAB4AF" transform="translate(10,68)"/>
<path d="M0 0 C0.66 0 1.32 0 2 0 C1.36433385 5.33406814 -0.85829741 7.28981244 -4.85546875 10.6171875 C-7.67525757 12.43541198 -9.72379048 12.57333667 -13 12 C-12.443125 11.7525 -11.88625 11.505 -11.3125 11.25 C-6.03790836 8.39886939 -3.2640423 4.95234004 0 0 Z " fill="#F3EBE1" transform="translate(43,50)"/>
<path d="M0 0 C1.32 0 2.64 0 4 0 C4.05399736 1.45792884 4.09279177 2.91642712 4.125 4.375 C4.14820313 5.18710937 4.17140625 5.99921875 4.1953125 6.8359375 C4 9 4 9 2 11 C1.67 8.69 1.34 6.38 1 4 C0.67 5.32 0.34 6.64 0 8 C-0.66 8 -1.32 8 -2 8 C-2.125 5.125 -2.125 5.125 -2 2 C-1.34 1.34 -0.68 0.68 0 0 Z " fill="#282D37" transform="translate(15,43)"/>
<path d="M0 0 C0.66 0 1.32 0 2 0 C1.83628906 0.52078125 1.67257813 1.0415625 1.50390625 1.578125 C0.85941341 4.6756875 0.90588411 7.58841094 0.9375 10.75 C0.94652344 11.92046875 0.95554687 13.0909375 0.96484375 14.296875 C0.97644531 15.18890625 0.98804688 16.0809375 1 17 C0.01 16.67 -0.98 16.34 -2 16 C-2 11.71 -2 7.42 -2 3 C-1.34 3 -0.68 3 0 3 C0 2.01 0 1.02 0 0 Z " fill="#FCF1E7" transform="translate(25,41)"/>
<path d="M0 0 C3.84814487 -0.58305225 5.76308635 0.2997117 8.8125 2.5 C9.88364055 3.32219744 10.9491359 4.15204049 12 5 C11.67 6.32 11.34 7.64 11 9 C9.72689688 8.06558465 8.456612 7.12732889 7.1875 6.1875 C6.47980469 5.66542969 5.77210938 5.14335937 5.04296875 4.60546875 C3.21468607 3.16871123 1.60103312 1.68184237 0 0 Z " fill="#DAD2CC" transform="translate(128,17)"/>
<path d="M0 0 C1.23925303 3.48738512 0.7983396 5.24703368 -0.75 8.5625 C-1.09546875 9.32691406 -1.4409375 10.09132813 -1.796875 10.87890625 C-2.98522483 12.97395157 -4.21770325 14.39695723 -6 16 C-6 14.02 -6 12.04 -6 10 C-5.01 9.67 -4.02 9.34 -3 9 C-3.33 8.01 -3.66 7.02 -4 6 C-3.01 5.67 -2.02 5.34 -1 5 C-0.67 3.35 -0.34 1.7 0 0 Z " fill="#53555B" transform="translate(190,68)"/>
<path d="M0 0 C1.8125 0.5625 1.8125 0.5625 4 2 C5.78686054 5.50990464 7 8.04124604 7 12 C6.34 12 5.68 12 5 12 C4.16440201 10.18854294 3.33157951 8.37580533 2.5 6.5625 C2.0359375 5.55316406 1.571875 4.54382812 1.09375 3.50390625 C0 1 0 1 0 0 Z " fill="#F4EBE1" transform="translate(187,39)"/>
<path d="M0 0 C0.33 0 0.66 0 1 0 C1.09796875 0.80824219 1.1959375 1.61648437 1.296875 2.44921875 C2.30423143 10.53689391 2.30423143 10.53689391 7 17 C5.35 16.67 3.7 16.34 2 16 C0.13216954 10.51324804 -0.2358396 5.77807024 0 0 Z " fill="#56575B" transform="translate(20,45)"/>
<path d="M0 0 C0.66 0 1.32 0 2 0 C5 5.625 5 5.625 5 9 C4.34 9 3.68 9 3 9 C3 8.01 3 7.02 3 6 C2.01 6.33 1.02 6.66 0 7 C-0.93423645 3.98968256 -1.04449911 3.13349732 0 0 Z " fill="#F6EEE4" transform="translate(100,64)"/>
<path d="M0 0 C2.64 0 5.28 0 8 0 C8.33 0.66 8.66 1.32 9 2 C8.0625 4.125 8.0625 4.125 7 6 C6.01 5.34 5.02 4.68 4 4 C4 3.34 4 2.68 4 2 C2.68 2 1.36 2 0 2 C0 1.34 0 0.68 0 0 Z " fill="#4A4C51" transform="translate(172,35)"/>
<path d="M0 0 C2 2 2 2 2.25 5.4375 C2 9 2 9 0 12 C-0.66 12 -1.32 12 -2 12 C-2.26252625 7.66831683 -1.29243536 4.1196377 0 0 Z " fill="#292E39" transform="translate(183,46)"/>
<path d="M0 0 C2.63219763 2.38151214 4.19228358 4.96303641 6 8 C7.31037934 9.68477344 8.63823078 11.35648543 10 13 C6.91245575 11.64416535 4.95292371 10.17282591 2.75 7.625 C2.22921875 7.03976563 1.7084375 6.45453125 1.171875 5.8515625 C0 4 0 4 0 0 Z " fill="#727175" transform="translate(153,47)"/>
<path d="M0 0 C0.66 0.33 1.32 0.66 2 1 C-1.06093224 4.93548431 -3.49115974 7.68116787 -8 10 C-6.44303593 6.17836093 -3.96591316 3.81381505 -1 1 C-0.67 0.67 -0.34 0.34 0 0 Z " fill="#68696B" transform="translate(20,36)"/>
<path d="M0 0 C1.98 0.66 3.96 1.32 6 2 C6 2.33 6 2.66 6 3 C7.65 3.33 9.3 3.66 11 4 C11 4.33 11 4.66 11 5 C9.741875 5.04125 8.48375 5.0825 7.1875 5.125 C6.47980469 5.14820313 5.77210938 5.17140625 5.04296875 5.1953125 C3 5 3 5 0 3 C0 2.01 0 1.02 0 0 Z " fill="#CDC5BF" transform="translate(163,58)"/>
<path d="M0 0 C0.66 0.33 1.32 0.66 2 1 C0.625 2.5 0.625 2.5 -1 4 C-1.66 4 -2.32 4 -3 4 C-3.28875 4.639375 -3.5775 5.27875 -3.875 5.9375 C-5 8 -5 8 -7 9 C-6.82374165 6.62051228 -6.30280227 5.29774151 -4.59765625 3.62109375 C-3.09350908 2.37884514 -1.54870149 1.18623944 0 0 Z " fill="#292D37" transform="translate(68,22)"/>
<path d="M0 0 C3.3 0.33 6.6 0.66 10 1 C9.67 1.66 9.34 2.32 9 3 C2.84765625 2.4140625 2.84765625 2.4140625 1 2 C0.67 1.34 0.34 0.68 0 0 Z " fill="#4D4E54" transform="translate(139,91)"/>
<path d="M0 0 C3 1 3 1 4.75 3.375 C6 6 6 6 5 9 C4.67 8.01 4.34 7.02 4 6 C3.34 6 2.68 6 2 6 C2 4.68 2 3.36 2 2 C1.34 2 0.68 2 0 2 C0 1.34 0 0.68 0 0 Z " fill="#272D37" transform="translate(145,39)"/>
<path d="M0 0 C1 2 1 2 0.44140625 3.9453125 C0.15136719 4.66460937 -0.13867188 5.38390625 -0.4375 6.125 C-0.72496094 6.84945312 -1.01242188 7.57390625 -1.30859375 8.3203125 C-1.53675781 8.87460937 -1.76492187 9.42890625 -2 10 C-2.99 10 -3.98 10 -5 10 C-3.66511872 6.40608886 -2.03977277 3.24509304 0 0 Z " fill="#7D7C7E" transform="translate(49,45)"/>
<path d="M0 0 C2.31 0 4.62 0 7 0 C7 0.66 7 1.32 7 2 C4.5 3.625 4.5 3.625 2 5 C2 3.68 2 2.36 2 1 C1.34 0.67 0.68 0.34 0 0 Z " fill="#515255" transform="translate(22,35)"/>
<path d="M0 0 C0.66 0 1.32 0 2 0 C2.25 2.3125 2.25 2.3125 2 5 C0 6.8125 0 6.8125 -2 8 C-1.47731534 5.23723823 -0.89130413 2.6739124 0 0 Z " fill="#F8EDE3" transform="translate(9,44)"/>
</svg>
